<?xml version="1.0" standalone="no"?>
<!DOCTYPE svg PUBLIC "-//W3C//DTD SVG 20010904//EN"
 "http://www.w3.org/TR/2001/REC-SVG-20010904/DTD/svg10.dtd">
<svg version="1.0" xmlns="http://www.w3.org/2000/svg"
 width="200.000000pt" height="200.000000pt" viewBox="0 0 200.000000 200.000000"
 preserveAspectRatio="xMidYMid meet">
<metadata>
Created by potrace 1.11, written by Peter Selinger 2001-2013
</metadata>
<g transform="translate(0.000000,200.000000) scale(0.100000,-0.100000)"
fill="#000000" stroke="none">
<path d="M937 1833 c-10 -3 -105 -54 -209 -115 -451 -259 -428 -243 -465 -324
l-24 -53 3 -353 c3 -387 4 -389 67 -454 16 -16 161 -105 322 -199 l294 -170
75 0 75 1 290 168 c160 93 302 180 317 194 15 14 37 46 49 71 21 44 22 58 23
388 1 188 -2 355 -6 372 -5 16 -23 50 -40 77 -35 50 -21 41 -455 291 -168 97
-187 105 -240 107 -32 2 -66 1 -76 -1z m393 -198 c151 -87 290 -168 308 -182
18 -13 42 -43 54 -66 20 -40 21 -54 21 -382 0 -372 -2 -392 -56 -442 -39 -37
-565 -343 -614 -358 l-23 -6 0 350 c0 344 0 351 -20 351 -20 0 -20 -7 -20
-350 0 -389 5 -364 -65 -329 -71 36 -560 323 -577 339 -10 9 -27 34 -37 55
-17 36 -19 67 -19 383 l0 344 27 51 c25 49 32 54 281 199 340 198 359 207 418
204 41 -3 87 -25 322 -161z"/>
<path d="M1103 1628 c-53 -67 -243 -360 -238 -368 10 -16 29 -11 46 13 118
167 229 342 225 353 -7 17 -20 18 -33 2z"/>
<path d="M927 1498 c-135 -192 -178 -268 -149 -268 14 0 45 40 135 173 78 115
96 157 66 157 -4 0 -28 -28 -52 -62z"/>
<path d="M1104 1492 c-16 -10 -114 -156 -114 -169 0 -6 6 -13 14 -16 9 -4 33
24 70 77 31 46 56 88 56 94 0 15 -14 22 -26 14z"/>
<path d="M330 1372 c0 -17 53 -51 285 -182 17 -9 89 -51 160 -92 139 -81 158
-89 214 -93 60 -4 96 12 330 147 124 72 254 146 289 165 58 33 75 54 52 68 -5
3 -114 -55 -242 -129 -292 -167 -307 -176 -342 -194 -35 -18 -103 -22 -136 -8
-26 11 -147 80 -427 242 -89 52 -167 94 -173 94 -5 0 -10 -8 -10 -18z"/>
<path d="M1367 784 c-59 -146 -105 -270 -102 -275 4 -5 12 -9 19 -9 15 0 230
526 221 540 -18 29 -40 -13 -138 -256z"/>
<path d="M1304 827 c-60 -146 -69 -174 -58 -187 9 -9 17 -11 22 -5 11 13 142
339 142 354 0 6 -8 11 -17 11 -14 0 -35 -42 -89 -173z"/>
<path d="M1617 939 c-8 -13 -23 -46 -32 -72 -16 -42 -16 -50 -4 -58 18 -11 30
5 54 75 14 41 16 59 8 67 -8 8 -15 5 -26 -12z"/>
<path d="M357 933 c-6 -9 128 -342 143 -357 7 -7 14 -6 21 1 9 9 -5 55 -58
185 -65 159 -89 199 -106 171z"/>
<path d="M465 911 c-9 -16 51 -156 69 -159 22 -5 21 24 -6 89 -30 76 -47 94
-63 70z"/>
</g>
</svg>
