<svg id="svg" version="1.1" xmlns="http://www.w3.org/2000/svg" xmlns:xlink="http://www.w3.org/1999/xlink" width="400" height="400" viewBox="0, 0, 400,400">
    <g id="svgg">
        <path id="path0" d="M61.505 19.030 C 59.891 19.900,59.972 13.902,60.090 123.515 C 60.205 230.659,60.139 226.361,61.691 226.394 C 63.477 226.432,63.386 231.317,63.600 124.218 C 63.817 15.882,63.648 23.016,66.018 21.791 C 68.145 20.691,334.880 21.094,336.758 22.200 C 337.505 22.640,338.442 23.450,338.841 24.000 C 339.537 24.961,339.570 31.783,339.683 199.270 L 339.800 373.541 338.963 374.670 C 337.328 376.875,345.283 376.753,201.280 376.777 C 53.626 376.802,65.550 377.010,64.192 374.384 C 63.452 372.954,63.270 278.309,64.002 275.591 C 65.164 271.278,60.236 271.534,141.053 271.598 C 215.797 271.658,213.719 271.703,214.614 269.973 C 216.203 266.900,215.189 254.665,213.260 253.632 C 212.330 253.134,108.103 253.010,107.360 253.506 C 106.326 254.197,106.000 255.749,106.000 259.987 C 106.000 268.953,107.445 268.432,82.123 268.601 C 59.762 268.750,60.769 268.623,60.102 271.360 C 59.936 272.042,59.890 296.421,60.000 325.535 L 60.200 378.471 61.144 379.235 C 62.070 379.985,64.838 380.000,201.415 380.000 L 340.742 380.000 341.574 378.943 L 342.405 377.886 342.378 199.183 C 342.351 21.962,342.345 20.474,341.564 19.767 C 340.961 19.221,339.726 18.983,336.288 18.750 C 326.869 18.110,62.712 18.379,61.505 19.030 M177.800 58.980 C 168.409 61.156,161.200 67.601,157.088 77.499 L 155.800 80.600 155.695 142.526 L 155.590 204.452 156.812 208.101 C 161.639 222.507,172.710 229.739,188.200 228.605 C 205.028 227.372,214.800 215.850,214.800 197.240 C 214.800 188.651,215.386 189.200,206.222 189.200 C 197.028 189.200,197.117 189.141,196.954 195.437 C 196.711 204.811,195.351 207.478,189.733 209.598 C 183.533 211.937,176.901 209.235,174.374 203.340 C 173.420 201.114,173.060 89.110,173.996 85.593 C 175.531 79.822,179.313 76.809,185.027 76.802 C 191.977 76.795,196.065 80.968,196.802 88.821 C 197.342 94.577,197.187 94.475,205.715 94.710 C 214.720 94.959,215.200 94.635,215.200 88.320 C 215.200 74.373,204.760 61.024,192.400 59.165 C 187.572 58.440,180.518 58.350,177.800 58.980 M107.741 60.397 C 107.268 60.588,106.773 60.920,106.640 61.136 C 106.007 62.159,106.368 225.740,107.005 226.376 C 108.132 227.504,121.305 227.418,122.623 226.274 L 123.630 225.400 123.610 143.863 C 123.587 56.244,123.722 61.094,121.295 60.420 C 119.505 59.922,108.961 59.905,107.741 60.397 M248.866 60.455 C 248.484 60.596,247.950 60.978,247.679 61.305 C 247.164 61.926,246.928 269.225,247.441 270.562 C 247.822 271.555,248.015 271.563,273.734 271.684 L 298.469 271.800 299.434 270.678 C 300.621 269.299,300.919 258.015,299.837 255.427 C 299.033 253.503,298.435 253.436,282.894 253.540 C 267.664 253.642,267.056 253.554,265.682 251.046 C 264.612 249.092,264.636 182.467,265.707 180.507 C 267.089 177.977,267.875 177.811,278.988 177.701 C 291.752 177.574,290.601 178.476,290.597 168.596 C 290.592 158.647,291.675 159.515,279.134 159.407 C 268.446 159.314,267.121 159.071,265.731 156.951 C 264.782 155.503,264.367 84.556,265.292 81.795 C 266.367 78.581,266.133 78.626,283.128 78.397 C 299.106 78.182,299.270 78.163,299.991 76.422 C 300.918 74.183,300.368 62.188,299.289 61.110 L 298.377 60.200 273.968 60.200 C 260.543 60.200,249.247 60.315,248.866 60.455 " stroke="none" fill="#0c100e" fill-rule="evenodd"></path>
        <path id="path1" d="M0.000 200.000 L 0.000 400.000 200.000 400.000 L 400.000 400.000 400.000 200.000 L 400.000 0.000 200.000 0.000 L 0.000 0.000 0.000 200.000 M339.200 16.266 C 342.797 16.691,343.690 17.138,344.548 18.947 C 345.148 20.211,345.200 34.682,345.200 199.373 C 345.200 392.082,345.333 379.910,343.213 381.800 C 342.095 382.797,61.965 383.287,60.039 382.295 C 59.510 382.023,58.700 381.292,58.239 380.671 L 57.400 379.541 57.400 324.453 C 57.400 272.496,57.440 269.304,58.106 268.288 C 59.785 265.725,58.972 265.820,81.182 265.600 C 92.302 265.490,101.699 265.252,102.063 265.071 C 103.281 264.468,103.708 262.596,103.515 258.699 C 103.294 254.232,103.641 252.773,105.242 251.426 L 106.461 250.400 160.212 250.400 C 217.026 250.400,215.348 250.345,216.603 252.260 C 218.774 255.574,218.295 272.372,215.994 273.603 C 215.538 273.847,189.125 274.000,144.336 274.018 C 68.593 274.048,68.984 274.038,67.068 275.954 L 66.200 276.822 66.093 324.111 C 65.977 375.733,65.867 373.303,68.346 373.992 C 70.399 374.562,332.442 374.551,334.495 373.980 C 335.318 373.752,336.173 373.224,336.397 372.806 C 337.233 371.243,336.727 26.156,335.887 25.314 C 335.303 24.728,334.118 24.542,329.287 24.275 C 320.115 23.767,70.245 23.503,68.405 23.999 C 65.846 24.688,66.000 18.157,65.998 125.760 C 65.996 191.630,65.860 225.089,65.588 226.067 C 64.318 230.641,58.816 231.203,57.616 226.882 C 57.339 225.884,57.207 191.912,57.211 122.800 C 57.218 7.679,56.949 17.813,60.046 16.284 C 61.564 15.535,332.859 15.518,339.200 16.266 M190.591 56.222 C 192.356 56.564,194.700 57.021,195.800 57.238 C 200.108 58.084,206.863 62.715,210.652 67.419 C 217.023 75.330,220.274 92.322,216.194 96.384 L 215.173 97.400 206.917 97.269 C 195.058 97.081,194.611 96.807,194.015 89.368 C 193.450 82.306,190.893 79.483,185.036 79.457 C 179.154 79.431,175.639 84.188,175.916 91.800 C 175.981 93.560,176.104 118.903,176.190 148.119 L 176.347 201.238 177.205 203.010 C 178.856 206.421,181.748 207.852,186.266 207.493 C 192.224 207.020,193.660 205.011,194.031 196.622 C 194.477 186.557,195.108 186.150,209.400 186.709 L 215.000 186.928 216.300 188.224 L 217.600 189.520 217.600 196.622 C 217.600 206.577,216.396 211.058,211.811 218.165 C 205.678 227.673,197.276 231.501,183.410 231.107 C 168.717 230.690,159.410 223.514,154.100 208.507 L 153.000 205.400 153.033 143.600 C 153.059 94.251,153.171 81.357,153.588 79.600 C 155.183 72.879,161.467 64.252,167.580 60.392 C 171.035 58.210,172.401 57.633,177.600 56.163 C 180.116 55.451,186.772 55.482,190.591 56.222 M123.496 58.122 C 126.463 59.712,126.200 51.382,126.200 143.653 L 126.200 226.341 125.364 227.471 C 123.809 229.571,122.894 229.767,114.561 229.784 C 106.548 229.801,105.498 229.610,104.463 227.952 C 103.838 226.951,103.734 60.444,104.358 59.278 C 105.278 57.560,106.477 57.351,115.200 57.393 C 121.037 57.422,122.415 57.543,123.496 58.122 M300.332 58.131 C 302.529 59.323,302.800 60.565,302.800 69.427 C 302.800 81.883,304.192 80.970,285.000 81.101 C 268.327 81.214,268.636 81.184,267.807 82.786 C 267.064 84.223,266.874 152.146,267.607 154.249 C 268.395 156.509,268.851 156.598,279.800 156.622 C 293.662 156.652,293.288 156.340,293.461 168.000 C 293.583 176.272,293.316 177.895,291.592 179.345 L 290.399 180.349 281.099 180.132 C 270.312 179.881,269.051 180.098,267.901 182.400 C 266.924 184.355,266.812 246.697,267.781 249.015 C 268.669 251.140,269.521 251.295,278.800 251.016 C 297.165 250.462,301.127 250.822,302.375 253.152 C 303.197 254.688,303.007 270.170,302.147 271.666 C 300.582 274.394,298.681 274.914,291.600 274.554 C 285.046 274.221,252.838 274.121,249.343 274.422 C 247.076 274.618,245.860 273.921,245.128 272.006 C 244.530 270.442,244.664 60.046,245.264 59.323 C 246.856 57.404,246.933 57.399,274.586 57.404 C 297.361 57.408,299.089 57.457,300.332 58.131 M110.800 309.745 C 113.631 311.177,115.112 312.574,116.086 314.735 C 118.088 319.176,113.300 321.234,109.121 317.728 C 103.049 312.633,95.076 316.935,94.159 325.800 C 93.318 333.933,99.035 337.457,105.831 332.994 C 108.922 330.964,110.678 330.487,112.412 331.205 C 115.803 332.609,113.574 336.666,107.361 340.400 L 105.031 341.800 100.016 341.800 C 89.509 341.800,84.857 334.855,87.157 322.600 C 89.195 311.737,101.504 305.045,110.800 309.745 M144.278 309.179 C 146.628 310.246,151.032 314.745,151.608 316.668 C 153.483 322.928,151.140 332.512,146.631 337.021 C 139.227 344.424,125.264 343.486,121.392 335.326 C 118.461 329.151,120.552 318.517,125.679 313.523 C 130.438 308.887,139.152 306.852,144.278 309.179 M250.349 308.842 C 251.756 309.333,252.400 310.243,252.400 311.741 C 252.400 314.769,251.229 315.200,243.007 315.200 C 235.558 315.200,233.890 315.584,233.175 317.465 C 231.897 320.828,233.629 321.726,241.901 321.990 C 249.016 322.218,249.600 322.421,249.600 324.670 C 249.600 327.657,246.815 328.667,238.275 328.775 C 232.613 328.847,231.479 329.160,230.782 330.844 C 229.399 334.181,230.909 334.950,239.335 335.200 L 246.070 335.400 247.035 336.522 C 248.260 337.947,248.259 339.254,247.035 340.678 L 246.069 341.800 234.599 341.800 L 223.129 341.800 222.377 340.871 C 221.056 339.240,221.010 337.506,222.188 333.727 C 222.782 331.823,223.414 328.901,223.594 327.233 C 223.773 325.565,224.213 323.398,224.572 322.417 C 224.930 321.436,225.397 318.955,225.610 316.904 C 226.140 311.792,227.306 309.578,229.874 308.807 C 231.595 308.290,248.852 308.320,250.349 308.842 M276.710 309.010 C 283.442 311.010,286.737 318.425,281.343 319.437 C 279.709 319.744,278.362 319.168,275.719 317.034 C 273.449 315.201,271.425 314.886,268.949 315.981 C 259.459 320.179,259.039 334.892,268.409 334.892 C 270.469 334.892,271.177 334.602,274.349 332.455 C 281.450 327.647,284.262 333.664,277.308 338.787 C 267.165 346.262,255.152 341.470,254.512 329.695 C 253.709 314.896,264.057 305.253,276.710 309.010 M310.926 308.865 C 314.155 310.585,313.266 314.050,309.253 315.383 C 306.331 316.353,305.414 318.252,304.013 326.235 C 301.461 340.783,301.059 341.709,297.300 341.709 C 294.554 341.709,293.873 341.057,294.117 338.661 C 294.416 335.730,295.531 329.395,296.212 326.758 C 298.489 317.951,297.987 316.115,293.000 315.005 C 289.688 314.268,289.383 310.353,292.531 308.983 C 294.195 308.260,309.604 308.161,310.926 308.865 M167.584 310.335 C 168.616 311.420,169.435 312.972,170.379 315.635 C 173.161 323.480,174.647 325.326,176.456 323.184 C 177.591 321.842,178.800 318.162,178.800 316.051 C 178.800 311.874,181.011 308.800,184.014 308.800 C 186.921 308.800,187.688 310.298,186.592 313.836 C 186.258 314.916,185.798 317.240,185.570 319.000 C 185.342 320.760,184.816 323.370,184.400 324.800 C 183.984 326.230,183.448 328.974,183.208 330.898 C 182.207 338.910,179.919 342.471,176.219 341.777 C 173.734 341.311,172.990 340.342,170.796 334.714 C 166.590 323.921,164.531 323.007,163.220 331.352 C 162.181 337.965,160.173 341.600,157.559 341.600 C 154.445 341.600,153.466 337.355,155.362 332.077 C 155.702 331.129,156.157 328.969,156.372 327.277 C 156.587 325.585,157.121 323.166,157.559 321.903 C 157.997 320.639,158.535 317.995,158.755 316.027 C 159.534 309.048,163.765 306.320,167.584 310.335 M201.001 310.174 C 201.811 311.032,202.856 313.021,203.786 315.474 C 208.139 326.954,210.946 327.005,212.373 315.630 C 213.011 310.535,214.594 308.596,217.884 308.877 C 220.480 309.099,221.048 310.441,220.074 314.044 C 219.634 315.670,219.165 318.196,219.031 319.657 C 218.896 321.118,218.440 323.322,218.016 324.554 C 217.592 325.787,217.068 328.376,216.853 330.309 C 216.482 333.629,215.361 337.674,214.145 340.081 C 213.064 342.221,208.787 342.353,206.926 340.304 C 206.474 339.807,205.340 337.420,204.405 335.000 C 200.277 324.312,197.992 322.988,196.809 330.600 C 195.684 337.833,193.749 341.600,191.159 341.600 C 188.093 341.600,187.052 337.682,188.781 332.655 C 189.210 331.407,189.683 329.264,189.832 327.893 C 189.981 326.522,190.513 324.050,191.015 322.400 C 191.517 320.750,192.052 317.960,192.204 316.200 C 192.803 309.268,197.264 306.212,201.001 310.174 M134.011 316.821 C 129.590 319.258,127.800 322.315,127.800 327.431 C 127.800 336.909,138.661 337.605,143.546 328.442 C 147.997 320.090,141.795 312.531,134.011 316.821 " stroke="none" fill="#f5f6f4" fill-rule="evenodd"></path>
        <path id="path2" d="M60.046 16.284 C 56.949 17.813,57.218 7.679,57.211 122.800 C 57.207 191.912,57.339 225.884,57.616 226.882 C 58.816 231.203,64.318 230.641,65.588 226.067 C 65.860 225.089,65.996 191.630,65.998 125.760 C 66.000 18.157,65.846 24.688,68.405 23.999 C 70.245 23.503,320.115 23.767,329.287 24.275 C 334.118 24.542,335.303 24.728,335.887 25.314 C 336.727 26.156,337.233 371.243,336.397 372.806 C 336.173 373.224,335.318 373.752,334.495 373.980 C 332.442 374.551,70.399 374.562,68.346 373.992 C 65.867 373.303,65.977 375.733,66.093 324.111 L 66.200 276.822 67.068 275.954 C 68.984 274.038,68.593 274.048,144.336 274.018 C 189.125 274.000,215.538 273.847,215.994 273.603 C 218.295 272.372,218.774 255.574,216.603 252.260 C 215.348 250.345,217.026 250.400,160.212 250.400 L 106.461 250.400 105.242 251.426 C 103.641 252.773,103.294 254.232,103.515 258.699 C 103.708 262.596,103.281 264.468,102.063 265.071 C 101.699 265.252,92.302 265.490,81.182 265.600 C 58.972 265.820,59.785 265.725,58.106 268.288 C 57.440 269.304,57.400 272.496,57.400 324.453 L 57.400 379.541 58.239 380.671 C 58.700 381.292,59.510 382.023,60.039 382.295 C 61.965 383.287,342.095 382.797,343.213 381.800 C 345.333 379.910,345.200 392.082,345.200 199.373 C 345.200 34.682,345.148 20.211,344.548 18.947 C 343.690 17.138,342.797 16.691,339.200 16.266 C 332.859 15.518,61.564 15.535,60.046 16.284 M336.288 18.750 C 339.726 18.983,340.961 19.221,341.564 19.767 C 342.345 20.474,342.351 21.962,342.378 199.183 L 342.405 377.886 341.574 378.943 L 340.742 380.000 201.415 380.000 C 64.838 380.000,62.070 379.985,61.144 379.235 L 60.200 378.471 60.000 325.535 C 59.890 296.421,59.936 272.042,60.102 271.360 C 60.769 268.623,59.762 268.750,82.123 268.601 C 107.445 268.432,106.000 268.953,106.000 259.987 C 106.000 255.749,106.326 254.197,107.360 253.506 C 108.103 253.010,212.330 253.134,213.260 253.632 C 215.189 254.665,216.203 266.900,214.614 269.973 C 213.719 271.703,215.797 271.658,141.053 271.598 C 60.236 271.534,65.164 271.278,64.002 275.591 C 63.270 278.309,63.452 372.954,64.192 374.384 C 65.550 377.010,53.626 376.802,201.280 376.777 C 345.283 376.753,337.328 376.875,338.963 374.670 L 339.800 373.541 339.683 199.270 C 339.570 31.783,339.537 24.961,338.841 24.000 C 338.442 23.450,337.505 22.640,336.758 22.200 C 334.880 21.094,68.145 20.691,66.018 21.791 C 63.648 23.016,63.817 15.882,63.600 124.218 C 63.386 231.317,63.477 226.432,61.691 226.394 C 60.139 226.361,60.205 230.659,60.090 123.515 C 59.972 13.902,59.891 19.900,61.505 19.030 C 62.712 18.379,326.869 18.110,336.288 18.750 M177.600 56.163 C 172.401 57.633,171.035 58.210,167.580 60.392 C 161.467 64.252,155.183 72.879,153.588 79.600 C 153.171 81.357,153.059 94.251,153.033 143.600 L 153.000 205.400 154.100 208.507 C 159.410 223.514,168.717 230.690,183.410 231.107 C 197.276 231.501,205.678 227.673,211.811 218.165 C 216.396 211.058,217.600 206.577,217.600 196.622 L 217.600 189.520 216.300 188.224 L 215.000 186.928 209.400 186.709 C 195.108 186.150,194.477 186.557,194.031 196.622 C 193.660 205.011,192.224 207.020,186.266 207.493 C 181.748 207.852,178.856 206.421,177.205 203.010 L 176.347 201.238 176.190 148.119 C 176.104 118.903,175.981 93.560,175.916 91.800 C 175.639 84.188,179.154 79.431,185.036 79.457 C 190.893 79.483,193.450 82.306,194.015 89.368 C 194.611 96.807,195.058 97.081,206.917 97.269 L 215.173 97.400 216.194 96.384 C 218.528 94.059,218.614 87.276,216.409 79.400 C 213.328 68.399,204.548 58.957,195.800 57.238 C 194.700 57.021,192.356 56.564,190.591 56.222 C 186.772 55.482,180.116 55.451,177.600 56.163 M107.400 57.500 C 106.113 57.727,104.768 58.513,104.358 59.278 C 103.734 60.444,103.838 226.951,104.463 227.952 C 105.498 229.610,106.548 229.801,114.561 229.784 C 122.894 229.767,123.809 229.571,125.364 227.471 L 126.200 226.341 126.200 143.653 C 126.200 51.382,126.463 59.712,123.496 58.122 C 122.278 57.469,110.220 57.004,107.400 57.500 M248.786 57.626 C 247.217 57.882,245.955 58.490,245.264 59.323 C 244.664 60.046,244.530 270.442,245.128 272.006 C 245.860 273.921,247.076 274.618,249.343 274.422 C 252.838 274.121,285.046 274.221,291.600 274.554 C 298.681 274.914,300.582 274.394,302.147 271.666 C 303.007 270.170,303.197 254.688,302.375 253.152 C 301.127 250.822,297.165 250.462,278.800 251.016 C 269.521 251.295,268.669 251.140,267.781 249.015 C 266.812 246.697,266.924 184.355,267.901 182.400 C 269.051 180.098,270.312 179.881,281.099 180.132 L 290.399 180.349 291.592 179.345 C 293.316 177.895,293.583 176.272,293.461 168.000 C 293.288 156.340,293.662 156.652,279.800 156.622 C 268.851 156.598,268.395 156.509,267.607 154.249 C 266.874 152.146,267.064 84.223,267.807 82.786 C 268.636 81.184,268.327 81.214,285.000 81.101 C 304.192 80.970,302.800 81.883,302.800 69.427 C 302.800 60.565,302.529 59.323,300.332 58.131 C 299.000 57.408,252.892 56.957,248.786 57.626 M192.400 59.165 C 204.760 61.024,215.200 74.373,215.200 88.320 C 215.200 94.635,214.720 94.959,205.715 94.710 C 197.187 94.475,197.342 94.577,196.802 88.821 C 195.440 74.304,177.668 71.789,173.996 85.593 C 173.060 89.110,173.420 201.114,174.374 203.340 C 176.901 209.235,183.533 211.937,189.733 209.598 C 195.351 207.478,196.711 204.811,196.954 195.437 C 197.117 189.141,197.028 189.200,206.222 189.200 C 215.386 189.200,214.800 188.651,214.800 197.240 C 214.800 215.850,205.028 227.372,188.200 228.605 C 172.710 229.739,161.639 222.507,156.812 208.101 L 155.590 204.452 155.695 142.526 L 155.800 80.600 157.088 77.499 C 163.306 62.532,174.867 56.530,192.400 59.165 M121.295 60.420 C 123.722 61.094,123.587 56.244,123.610 143.863 L 123.630 225.400 122.623 226.274 C 121.305 227.418,108.132 227.504,107.005 226.376 C 106.368 225.740,106.007 62.159,106.640 61.136 C 107.331 60.017,117.974 59.497,121.295 60.420 M299.289 61.110 C 300.368 62.188,300.918 74.183,299.991 76.422 C 299.270 78.163,299.106 78.182,283.128 78.397 C 266.133 78.626,266.367 78.581,265.292 81.795 C 264.367 84.556,264.782 155.503,265.731 156.951 C 267.121 159.071,268.446 159.314,279.134 159.407 C 291.675 159.515,290.592 158.647,290.597 168.596 C 290.601 178.476,291.752 177.574,278.988 177.701 C 267.875 177.811,267.089 177.977,265.707 180.507 C 264.636 182.467,264.612 249.092,265.682 251.046 C 267.056 253.554,267.664 253.642,282.894 253.540 C 298.435 253.436,299.033 253.503,299.837 255.427 C 300.919 258.015,300.621 269.299,299.434 270.678 L 298.469 271.800 273.734 271.684 C 248.015 271.563,247.822 271.555,247.441 270.562 C 246.928 269.225,247.164 61.926,247.679 61.305 C 248.569 60.232,249.331 60.200,273.968 60.200 L 298.377 60.200 299.289 61.110 M98.987 308.937 C 90.794 311.614,86.402 319.020,86.924 329.277 C 87.390 338.417,90.926 341.800,100.016 341.800 L 105.031 341.800 107.361 340.400 C 113.574 336.666,115.803 332.609,112.412 331.205 C 110.678 330.487,108.922 330.964,105.831 332.994 C 99.035 337.457,93.318 333.933,94.159 325.800 C 95.076 316.935,103.049 312.633,109.121 317.728 C 114.749 322.450,119.534 316.934,114.152 311.929 C 110.877 308.883,103.567 307.441,98.987 308.937 M133.600 308.775 C 119.131 313.212,114.818 334.811,127.184 340.905 C 132.529 343.539,142.004 341.647,146.631 337.021 C 153.251 330.402,154.208 318.193,148.552 312.537 C 144.686 308.671,138.783 307.186,133.600 308.775 M229.874 308.807 C 227.306 309.578,226.140 311.792,225.610 316.904 C 225.397 318.955,224.930 321.436,224.572 322.417 C 224.213 323.398,223.773 325.565,223.594 327.233 C 223.414 328.901,222.782 331.823,222.188 333.727 C 221.010 337.506,221.056 339.240,222.377 340.871 L 223.129 341.800 234.599 341.800 L 246.069 341.800 247.035 340.678 C 248.259 339.254,248.260 337.947,247.035 336.522 L 246.070 335.400 239.335 335.200 C 230.909 334.950,229.399 334.181,230.782 330.844 C 231.479 329.160,232.613 328.847,238.275 328.775 C 246.815 328.667,249.600 327.657,249.600 324.670 C 249.600 322.421,249.016 322.218,241.901 321.990 C 233.629 321.726,231.897 320.828,233.175 317.465 C 233.890 315.584,235.558 315.200,243.007 315.200 C 251.787 315.200,254.077 313.881,252.008 310.016 C 251.203 308.510,233.994 307.570,229.874 308.807 M266.514 308.980 C 254.685 312.677,249.870 331.152,258.646 339.172 C 264.277 344.319,276.682 342.261,280.807 335.496 C 283.276 331.446,278.889 329.381,274.349 332.455 C 271.177 334.602,270.469 334.892,268.409 334.892 C 259.039 334.892,259.459 320.179,268.949 315.981 C 271.425 314.886,273.449 315.201,275.719 317.034 C 280.141 320.605,284.000 320.324,284.000 316.431 C 284.000 310.828,274.100 306.610,266.514 308.980 M292.531 308.983 C 289.383 310.353,289.688 314.268,293.000 315.005 C 297.987 316.115,298.489 317.951,296.212 326.758 C 295.531 329.395,294.416 335.730,294.117 338.661 C 293.873 341.057,294.554 341.709,297.300 341.709 C 301.059 341.709,301.461 340.783,304.013 326.235 C 305.414 318.252,306.331 316.353,309.253 315.383 C 313.266 314.050,314.155 310.585,310.926 308.865 C 309.604 308.161,294.195 308.260,292.531 308.983 M161.505 309.426 C 159.913 310.290,159.206 311.988,158.755 316.027 C 158.535 317.995,157.997 320.639,157.559 321.903 C 157.121 323.166,156.587 325.585,156.372 327.277 C 156.157 328.969,155.702 331.129,155.362 332.077 C 153.466 337.355,154.445 341.600,157.559 341.600 C 160.173 341.600,162.181 337.965,163.220 331.352 C 164.531 323.007,166.590 323.921,170.796 334.714 C 172.990 340.342,173.734 341.311,176.219 341.777 C 179.919 342.471,182.207 338.910,183.208 330.898 C 183.448 328.974,183.984 326.230,184.400 324.800 C 184.816 323.370,185.342 320.760,185.570 319.000 C 185.798 317.240,186.258 314.916,186.592 313.836 C 187.688 310.298,186.921 308.800,184.014 308.800 C 181.011 308.800,178.800 311.874,178.800 316.051 C 178.800 318.162,177.591 321.842,176.456 323.184 C 174.647 325.326,173.161 323.480,170.379 315.635 C 168.188 309.456,165.245 307.397,161.505 309.426 M194.605 309.667 C 193.109 310.845,192.531 312.416,192.204 316.200 C 192.052 317.960,191.517 320.750,191.015 322.400 C 190.513 324.050,189.981 326.522,189.832 327.893 C 189.683 329.264,189.210 331.407,188.781 332.655 C 187.052 337.682,188.093 341.600,191.159 341.600 C 193.749 341.600,195.684 337.833,196.809 330.600 C 197.992 322.988,200.277 324.312,204.405 335.000 C 205.340 337.420,206.474 339.807,206.926 340.304 C 208.787 342.353,213.064 342.221,214.145 340.081 C 215.361 337.674,216.482 333.629,216.853 330.309 C 217.068 328.376,217.592 325.787,218.016 324.554 C 218.440 323.322,218.896 321.118,219.031 319.657 C 219.165 318.196,219.634 315.670,220.074 314.044 C 221.048 310.441,220.480 309.099,217.884 308.877 C 214.594 308.596,213.011 310.535,212.373 315.630 C 210.946 327.005,208.139 326.954,203.786 315.474 C 201.361 309.079,198.031 306.973,194.605 309.667 M141.172 316.186 C 150.500 321.009,140.967 338.713,131.468 334.206 C 127.593 332.367,126.464 326.838,128.957 321.916 C 131.455 316.986,137.362 314.215,141.172 316.186 " stroke="none" fill="#990829" fill-rule="evenodd"></path>
    </g>
</svg>
