<?xml version="1.0" standalone="no"?>
<!DOCTYPE svg PUBLIC "-//W3C//DTD SVG 20010904//EN"
 "http://www.w3.org/TR/2001/REC-SVG-20010904/DTD/svg10.dtd">
<svg version="1.0" xmlns="http://www.w3.org/2000/svg"
 width="1667.000000pt" height="1667.000000pt" viewBox="0 0 1667.000000 1667.000000"
 preserveAspectRatio="xMidYMid meet">
<metadata>
Created by potrace 1.11, written by Peter Selinger 2001-2013
</metadata>
<g transform="translate(0.000000,1667.000000) scale(0.100000,-0.100000)"
fill="#000000" stroke="none">
<path d="M5140 16009 c-1699 -4 -2568 -10 -2613 -17 -38 -6 -75 -16 -82 -22
-22 -18 -35 -103 -46 -296 -14 -264 -22 -4536 -12 -6639 l9 -1820 23 -43 c58
-113 218 -103 289 16 l27 47 6 485 c4 267 7 1945 8 3730 2 3117 8 3979 31
4120 7 40 19 73 31 85 19 20 35 20 3467 23 3527 3 7416 -11 7577 -28 49 -5
101 -14 116 -20 l26 -11 7 -167 c24 -612 43 -13939 20 -14216 -14 -165 47
-149 -607 -159 -692 -9 -10543 -2 -10580 8 -16 4 -35 17 -43 30 -38 58 -39
125 -36 2105 l2 1915 34 32 c43 40 86 52 234 64 70 6 1283 13 3017 18 1595 5
2915 12 2932 16 18 4 37 13 43 20 42 51 73 365 59 600 -11 197 -36 283 -90
310 -60 31 -305 35 -2435 35 l-2131 0 -46 -48 c-58 -63 -68 -108 -65 -312 2
-168 -9 -217 -52 -240 -25 -14 -543 -29 -1015 -30 -176 0 -406 -5 -512 -10
-223 -10 -264 -22 -303 -86 -23 -36 -24 -47 -31 -328 -4 -160 -8 -1198 -8
-2308 l-1 -2016 39 -50 c26 -32 53 -55 78 -64 32 -11 861 -13 4953 -12 4870 0
6742 10 6832 35 21 5 42 18 48 29 24 45 31 310 41 1730 12 1644 4 12910 -9
13195 -10 210 -22 232 -142 263 -43 11 -204 16 -725 22 -953 12 -5373 17
-8365 9z"/>
<path d="M7454 14341 c-146 -24 -341 -103 -483 -196 -198 -131 -417 -400 -518
-639 -72 -169 -66 70 -70 -2811 l-4 -2600 50 -133 c130 -346 291 -571 512
-718 220 -146 440 -204 781 -204 339 0 583 62 790 201 188 126 405 427 487
674 51 155 62 251 68 570 l5 290 -53 52 -54 52 -255 10 c-370 14 -497 -2 -555
-71 -38 -45 -54 -117 -65 -292 -18 -281 -40 -366 -111 -431 -55 -50 -130 -70
-264 -70 -105 0 -114 2 -177 33 -74 36 -119 83 -161 168 l-26 51 -9 2335 c-5
1284 -6 2359 -1 2388 19 118 59 200 133 267 85 78 201 108 329 83 171 -32 252
-141 277 -377 26 -235 40 -274 111 -310 60 -31 153 -40 489 -48 l286 -7 41 45
c65 71 88 193 72 382 -24 280 -121 557 -270 776 -73 106 -247 277 -353 347
-115 75 -202 107 -398 147 -154 32 -193 37 -363 40 -104 2 -213 0 -241 -4z"/>
<path d="M4440 14264 c-25 -8 -56 -27 -70 -40 l-25 -24 -6 -663 c-18 -1796 -4
-6331 20 -6375 23 -43 67 -55 234 -66 205 -13 504 2 559 28 21 10 54 40 73 67
l36 48 -4 3363 c-4 3394 -6 3526 -40 3597 -9 20 -29 32 -82 49 -65 22 -89 24
-360 28 -249 4 -296 2 -335 -12z"/>
<path d="M10394 14270 c-76 -8 -131 -29 -160 -61 -17 -18 -18 -93 -26 -1227
-5 -664 -8 -2651 -6 -4417 3 -3183 3 -3210 23 -3249 11 -22 32 -48 47 -59 25
-19 48 -20 760 -18 403 1 858 -3 1012 -8 392 -14 471 -1 531 91 36 54 48 191
43 512 -4 289 -6 300 -67 334 -82 47 -252 54 -1001 43 -386 -6 -386 -6 -401
192 -16 219 -22 1485 -9 2037 6 294 15 559 19 589 9 64 45 103 113 122 48 13
237 16 596 10 l243 -4 44 43 c67 66 70 86 70 445 -1 332 -5 370 -50 423 -52
62 -71 65 -500 72 -232 5 -406 12 -431 19 -62 17 -84 47 -96 133 -14 93 -14
2401 0 2711 10 242 12 247 81 268 23 7 247 14 616 19 602 8 644 11 708 53 13
8 33 33 43 54 17 35 19 64 19 363 0 357 -6 408 -53 453 -15 14 -40 31 -57 37
-20 8 -162 15 -410 21 -461 10 -1602 9 -1701 -1z"/>
<path d="M5616 3814 c-165 -37 -351 -159 -444 -292 -123 -176 -181 -372 -169
-575 9 -164 51 -271 145 -370 129 -135 289 -185 503 -157 349 45 580 246 665
578 37 140 36 322 0 437 -32 101 -69 158 -154 236 -111 102 -220 146 -382 154
-65 3 -117 0 -164 -11z m236 -310 c240 -81 251 -430 22 -662 -95 -95 -160
-126 -264 -126 -61 0 -84 5 -125 26 -126 66 -180 191 -156 362 37 260 314 472
523 400z"/>
<path d="M4162 3805 c-182 -40 -353 -176 -446 -355 -79 -152 -101 -267 -94
-490 4 -127 9 -167 28 -220 32 -91 55 -135 97 -181 89 -98 198 -129 458 -129
l182 0 94 59 c228 143 323 284 239 354 -61 52 -138 47 -245 -13 -192 -109
-274 -134 -361 -111 -149 40 -225 221 -180 431 66 311 350 463 572 306 133
-94 186 -114 253 -96 70 19 109 87 92 163 -28 122 -179 236 -373 282 -78 18
-232 18 -316 0z"/>
<path d="M9619 3811 c-137 -26 -182 -99 -218 -357 -12 -82 -30 -178 -40 -214
-25 -87 -28 -99 -46 -220 -8 -57 -31 -165 -51 -240 -47 -172 -48 -232 -8 -297
l30 -48 484 -3 484 -2 24 22 c60 56 68 123 23 186 -16 22 -34 43 -40 46 -6 4
-113 11 -238 16 -270 10 -352 22 -394 57 -33 28 -37 56 -14 110 22 51 42 71
84 83 20 6 137 15 261 20 359 15 440 47 440 171 0 88 -20 96 -293 109 -231 11
-315 24 -359 54 -47 31 -56 65 -32 122 35 86 89 104 313 104 185 1 382 16 424
33 73 31 94 86 63 162 -18 43 -35 51 -142 71 -102 18 -675 29 -755 15z"/>
<path d="M11131 3800 c-107 -29 -194 -81 -287 -174 -91 -91 -150 -184 -194
-305 -107 -293 -65 -588 109 -762 113 -113 244 -158 428 -146 264 18 544 205
543 364 -1 91 -94 129 -208 84 -27 -11 -84 -43 -127 -70 -95 -62 -168 -86
-238 -77 -70 10 -115 31 -160 74 -118 113 -126 310 -21 502 39 72 140 164 221
202 115 55 191 43 310 -48 181 -138 332 -116 327 48 -4 95 -90 200 -219 263
-132 65 -335 84 -484 45z"/>
<path d="M12317 3809 c-90 -6 -125 -13 -150 -28 -67 -41 -86 -120 -44 -182 19
-29 37 -39 114 -65 106 -35 126 -50 149 -110 22 -57 15 -131 -32 -327 -45
-192 -94 -482 -94 -561 0 -90 15 -101 130 -101 84 0 90 1 119 29 49 47 79 154
141 496 81 451 106 513 227 560 165 65 213 184 106 263 -45 34 -366 46 -666
26z"/>
<path d="M6748 3785 c-84 -44 -104 -92 -142 -345 -9 -58 -28 -143 -42 -190
-13 -47 -35 -148 -49 -225 -13 -77 -36 -178 -50 -225 -49 -160 -31 -312 41
-351 40 -21 95 -17 132 10 70 50 118 161 157 365 40 211 62 266 105 266 46 0
115 -119 221 -379 94 -229 117 -260 214 -282 95 -21 164 20 219 130 34 67 52
137 81 315 14 87 36 202 50 256 13 53 34 155 45 226 12 71 33 176 47 233 21
89 23 111 14 143 -14 46 -51 68 -116 68 -60 0 -107 -23 -150 -72 -44 -53 -64
-111 -75 -230 -14 -143 -70 -291 -120 -318 -68 -36 -113 28 -218 307 -73 192
-118 260 -200 302 -54 27 -106 26 -164 -4z"/>
<path d="M8149 3790 c-79 -42 -120 -119 -134 -255 -10 -93 -34 -219 -65 -340
-16 -60 -33 -147 -40 -193 -6 -46 -24 -128 -40 -183 -37 -131 -45 -193 -30
-263 20 -99 98 -147 176 -110 69 33 133 166 169 354 46 245 63 290 109 290 49
0 111 -105 226 -385 34 -82 72 -169 86 -192 31 -54 90 -83 170 -83 110 0 150
38 199 194 24 73 36 133 80 381 9 50 25 118 35 152 11 35 27 113 35 175 9 62
27 161 41 220 39 171 30 217 -44 238 -56 15 -101 12 -146 -10 -71 -35 -102
-106 -131 -300 -38 -253 -90 -352 -160 -306 -39 26 -98 123 -149 249 -104 250
-157 336 -230 371 -45 21 -113 20 -157 -4z"/>
</g>
</svg>
